<?xml version="1.0" encoding="utf-8"?>
<!-- Generator: Adobe Illustrator 20.0.0, SVG Export Plug-In . SVG Version: 6.00 Build 0)  -->
<svg version="1.1" id="Layer_1" xmlns="http://www.w3.org/2000/svg" xmlns:xlink="http://www.w3.org/1999/xlink" x="0px" y="0px"
	 viewBox="0 0 1920 1080" style="enable-background:new 0 0 1920 1080;" xml:space="preserve">
<g>
	<path d="M806.5,455"/>
	<g>
		<polygon points="506,351.1 506,355.1 553.9,355.1 554,355 		"/>
		<g>
			<g>
				<path d="M613.8,346.5c-14.6-14.1-35.6-24.5-62.4-24.5v0.1H506v31.5c6.7,0,15.9,0.3,22.8,0.6c6,0,12.1,0.1,18,0.8
					c0.6,0,1.1,0.1,1.7,0.2h2.1c0.1,0,0.3,0,0.4,0h0.3c30.7,0,51.1,20.2,51.1,50.1c0,28.2-17.5,47.4-44.9,49.8
					c-8.8,1.4-17.7,1.6-26.6,1.9c-0.1,0-0.4,0-0.6,0c-8.1,0.3-16.2,0.4-24.3,0.4v31.4h45.4c24.8,0,45.6-8.1,62.4-24.4
					c15.2-14.8,22.9-34.4,22.9-58.8S629,361.4,613.8,346.5z"/>
			</g>
		</g>
	</g>
	<polygon points="902,320 943,320 836,489 824,446.5 	"/>
	<polygon points="666,457 779,457 799,489 666,489 	"/>
	<polygon points="666,389 750.1,389 765,421 666,421 	"/>
	<polygon points="666,320 722.9,320 733,352 666,352 	"/>
</g>
</svg>
