<?xml version="1.0" encoding="utf-8"?>
<!-- Generator: Adobe Illustrator 20.1.0, SVG Export Plug-In . SVG Version: 6.00 Build 0)  -->
<svg version="1.1" id="Layer_1" xmlns="http://www.w3.org/2000/svg" xmlns:xlink="http://www.w3.org/1999/xlink" x="0px" y="0px"
	 viewBox="0 0 115.5 105.8" style="enable-background:new 0 0 115.5 105.8;" xml:space="preserve">
<style type="text/css">
	.st0{opacity:0.46;fill:#5D8794;}
	.st1{fill:#FFFFFF;}
	.st2{opacity:0.67;fill:#010A0C;}
	.st3{fill:#F4F5F5;}
	.st4{fill:#5D8794;}
	.st5{opacity:0.9;fill:#FFFFFF;}
	.st6{fill:none;stroke:#5D8794;stroke-width:0.5;stroke-miterlimit:10;}
</style>
<path class="st0" d="M81,46.6V36c-5.4-1.9-8.9-2.5-10.6-6.6c-1.7-4.2,0.3-7,2.8-12.2l-7.5-7.5c-5.1,2.4-8,4.5-12.2,2.8
	c-4.2-1.7-4.7-5.2-6.6-10.6H36.2c-1.9,5.4-2.5,8.9-6.6,10.6h0c-4.2,1.7-7-0.3-12.2-2.8l-7.5,7.5c2.4,5.2,4.5,8,2.8,12.2
	C10.9,33.5,7.4,34,2,36v10.6c5.4,1.9,8.9,2.5,10.6,6.6c1.7,4.2-0.4,7.1-2.8,12.2l7.5,7.5c5.1-2.4,8-4.5,12.2-2.8h0
	c4.2,1.7,4.7,5.2,6.6,10.6h10.6c1.9-5.4,2.5-8.9,6.7-10.6h0c4.2-1.7,7,0.3,12.2,2.8l7.5-7.5c-2.4-5.1-4.5-8-2.8-12.2
	C72.1,49.1,75.6,48.5,81,46.6z"/>
<ellipse class="st1" cx="41.5" cy="41.3" rx="13.2" ry="13.2"/>
<path class="st2" d="M113.5,74v-5c-2.6-0.9-4.2-1.2-5-3.1c-0.8-2,0.2-3.3,1.3-5.7l-3.5-3.5c-2.4,1.2-3.8,2.1-5.7,1.3s-2.2-2.4-3.1-5
	h-5c-0.9,2.5-1.2,4.2-3.1,5s-3.3-0.2-5.7-1.3L80,60.1c1.2,2.4,2.1,3.8,1.3,5.7c-0.8,2-2.5,2.2-5,3.1v5c2.5,0.9,4.2,1.2,5,3.1
	c0.8,2-0.2,3.4-1.3,5.7l3.5,3.5c2.4-1.2,3.8-2.1,5.7-1.3c2,0.8,2.2,2.4,3.1,5h5c0.9-2.5,1.2-4.2,3.1-5h0c2-0.8,3.3,0.2,5.7,1.3
	l3.5-3.5c-1.1-2.4-2.1-3.8-1.3-5.7C109.3,75.1,111,74.9,113.5,74z"/>
<circle class="st3" cx="94.9" cy="71.5" r="6.2"/>
<path class="st4" d="M76.3,91.9v-3.8c-1.9-0.7-3.1-0.9-3.7-2.3s0.1-2.5,1-4.3l-2.7-2.7c-1.8,0.9-2.8,1.6-4.3,1S65,78,64.3,76.1h-3.7
	c-0.7,1.9-0.9,3.1-2.4,3.7c-1.5,0.6-2.5-0.1-4.3-1l-2.7,2.7c0.9,1.8,1.6,2.8,1,4.3s-1.8,1.7-3.7,2.3v3.8c1.9,0.7,3.1,0.9,3.7,2.3
	c0.6,1.5-0.1,2.5-1,4.3l2.7,2.7c1.8-0.9,2.8-1.6,4.3-1c1.5,0.6,1.7,1.8,2.4,3.7h3.7c0.7-1.9,0.9-3.1,2.4-3.7h0
	c1.5-0.6,2.5,0.1,4.3,1l2.7-2.7c-0.9-1.8-1.6-2.8-1-4.3S74.4,92.6,76.3,91.9z"/>
<circle class="st5" cx="62.4" cy="90.1" r="4.6"/>
<polygon class="st4" points="43.9,41.9 50.6,35.2 48.3,33 39.4,41.9 47.2,49.8 49.5,47.5 "/>
<polygon class="st6" points="95.4,70.7 91.2,69.8 91,71.2 96.6,72.4 97.5,67.5 96.1,67.2 "/>
<polygon class="st4" points="62.3,90.1 62.3,87.3 61.4,87.3 61.4,91.1 64.6,91.1 64.6,90.1 "/>
</svg>
